<svg version="1" xmlns="http://www.w3.org/2000/svg" width="1066.667" height="1066.667" viewBox="0 0 800.000000 800.000000"><path d="M387.3 7.5c-43.5 8-80.3 38.2-96.2 78.8-6.4 16.6-8.4 27.5-8.4 46.2-.1 22.1 3.3 36.7 12.9 55.8 8.8 17.4 24.9 35.8 41.2 47.1l8.2 5.8-.2 42.6-.3 42.6-5.7 3.3c-6.5 3.8-17 13.2-19.5 17.4l-1.7 2.8-86 .3-86.1.3-5.7 2.3c-6.7 2.7-15.8 10.5-19.2 16.6-3.7 6.4-78.1 192.3-80.1 200.1-1.6 6.2-1.9 13.4-2.2 66.5-.5 63.6-.4 66 4.4 75.4 3.3 6.4 10.1 13.6 16.1 16.9 8.8 4.8 14.7 5.7 37.4 5.7 14.5 0 23.6.5 30 1.6 5 .9 11.1 1.4 13.5 1.2 3-.2 4.3.1 4.3.9 0 1 52.4 1.3 262.5 1.3 214.6 0 262.5-.2 262.5-1.3 0-.9 1.1-1.2 3.3-.9 1.8.2 6.6-.2 10.7-.8 4.1-.7 17.6-1.6 30-1.9 19.4-.6 23.2-1 27.7-2.8 12.1-4.8 21.1-14.7 25.5-28.2 2.1-6.5 2.1-7.8 2-69.1 0-59.3-.1-62.8-2-68-2.6-7.2-79.5-189.7-82.3-195.1-3.1-6.2-12-14.6-18.6-17.7l-5.8-2.7-78.7-.5-78.6-.5-6.2-6.8c-3.4-3.7-9.8-9.1-14.1-11.9l-7.9-5.1v-84.4l6.8-4.5c28.2-19 47.8-48.9 53.9-82.6 2.3-12.7 2-33.1-.6-45.9-10.8-52.4-51.2-91.8-103.5-100.8-10.7-1.8-33.1-1.8-43.3 0zm12.2 23.4l4 .7-5.4.8c-5.6.9-5.4 2.4.4 2.7l3 .1-3 .8c-2.8.7-2.8.8-.5.9 1.4.1 3.6.4 5 .8l2.5.7-3 .7-3 .6 3.5.8c2.9.7 3.1.9 1.5 1.6-1.1.4-3.4.8-5.1.8-5.2.1-21.5 4.7-28.6 8-7.6 3.6-10.4 4-6.8 1l2.5-2.1-3 .5-3 .5 3-2.5 3-2.5-3 .6c-3.2.7-3 .4 2.2-3.2 1.6-1.1 1.6-1.2-.7-.7-1.6.4-.9-.3 2-2l4.5-2.6-4 .6c-2.2.3-4.9.8-6 1.1-1.1.2 0-.7 2.5-2 11-6.1 25-8.7 35.5-6.7zM371 232.5c4.7 1.9 11.8 4.2 15.8 5.1l7.2 1.6V385l2.8.7c5 1.4 25.3.7 32.7-1.1 12.2-2.9 22.2-8.8 25.8-15 .7-1.3 1.4-8.2 1.7-17.4l.5-15.4 9.2 4.7c10.8 5.4 19.2 12.6 22.4 19.3 1.2 2.6 2.7 5 3.3 5.4.6.4 37.5.8 81.9.8 78.3 0 80.9.1 84.6 2 7.3 3.6 10.1 8.4 22 36.7 6.2 14.7 24.6 58.5 40.9 97.3l29.6 70.5.1 8.1v8.1l-6 8.9c-6.7 9.9-10.3 12.8-17.8 14.4-3.7.7-100.9.9-326.7.8-301.6-.3-321.8-.4-325.8-2l-4.3-1.7.3 41.2c.3 43.6.4 44.3 5.1 46.9 1.7 1 44.9 1.4 212.9 1.8 115.8.3 211 .8 211.4 1.2.4.5.5.9.3 1.1-.2.2-4.6 3.4-9.6 7.1l-9.3 6.8-203.2.1-203.3.2-5-2.3c-6.1-2.8-10-6.4-12.8-11.7-2-3.8-2.2-6-3-45.5-1.1-53.9-.5-77 2.1-87 1.1-4.1 13.7-35.6 28-70 14.2-34.4 31.2-75.5 37.8-91.5 6.5-16 13.2-30.7 14.9-32.9 3.8-5 8.7-7.5 16.7-8.6 3.5-.5 43.9-1 89.8-1h83.5l2.4-5c3.4-7.1 11.5-14.1 22.7-19.7l9.4-4.6v-53.9c0-29.6.1-53.8.3-53.8.1 0 4 1.6 8.7 3.5z"/><path d="M492.1 373.6c-.1 1.6-1.3 5.3-2.7 8.2-13 26.1-72.8 39.8-119.4 27.2-2.3-.6-4.4-.9-4.7-.7-.2.3-3.8 16.6-7.8 36.3l-7.5 35.9 2.3 1.7c1.2 1 2.5 1.8 3 1.8 1.4 0 .7 2-.7 2-1.6 0-4 9-2.8 10.2 1.3 1.3 19.6 5.8 30.2 7.4 12.6 1.9 40.8 2.2 53 .5 44.9-6.3 77.8-27.6 77.3-50.1-.1-6.1-20.1-85.5-20.2-80.4zM160.5 513c-23.8 3.7-40.8 15.2-44 29.7-.8 4 1 13.4 3.7 18.7 4.5 8.9 18.7 18.3 33.8 22.3 10.3 2.8 34 2.5 44.5-.5 14-4 26-12.1 31.2-21 2.2-3.8 2.7-5.8 2.8-11.6 0-6-.4-7.9-3-12.4-5.8-10.6-18.5-19.1-34.3-23.1-9.4-2.4-26-3.4-34.7-2.1z"/></svg>